<?xml version="1.0" standalone="no"?><!-- Generator: Gravit.io --><svg xmlns="http://www.w3.org/2000/svg" xmlns:xlink="http://www.w3.org/1999/xlink" style="isolation:isolate" viewBox="0 0 381.094 241.271" width="381.094" height="241.271"><defs><clipPath id="_clipPath_v0jzQIVarEsURD813BMKeivUlG4dgT1d"><rect width="381.094" height="241.271"/></clipPath></defs><g clip-path="url(#_clipPath_v0jzQIVarEsURD813BMKeivUlG4dgT1d)"><path d=" M 1.5 239.771 L 145.219 239.771 L 379.594 155.531 L 280.781 141.844 L 275.125 141.219 L 159.311 154.178 L 159.188 168.908 L 93.656 181.781 L 85.219 131.156 L 97.844 129.109 L 96.176 127.5 L 96.176 122.484 L 40.781 127.219 L 1.5 142.529 L 1.5 151.219 L 26.906 148.594 L 1.5 164.344 L 1.5 239.771 Z " fill="none" vector-effect="non-scaling-stroke" stroke-width="1" stroke="rgb(0,0,0)" stroke-linejoin="miter" stroke-linecap="square" stroke-miterlimit="3"/><path d=" M 307.344 145.469 L 337.531 140 L 307.605 136.156 L 307.555 138.855 L 281.145 141.844 L 307.344 145.469 Z " fill="none" vector-effect="non-scaling-stroke" stroke-width="1" stroke="rgb(0,0,0)" stroke-linejoin="miter" stroke-linecap="square" stroke-miterlimit="3"/><path d=" M 105.563 68.736 L 77.842 64.482 L 77.842 68.104 L 81.199 94.172 L 96.176 95.016 L 91.254 101.133 L 96.176 103 L 96.176 127.5 L 104.688 135.625 L 105.563 68.736 Z " fill="none" vector-effect="non-scaling-stroke" stroke-width="1" stroke="rgb(0,0,0)" stroke-linejoin="miter" stroke-linecap="square" stroke-miterlimit="3"/><line x1="275.402" y1="88.188" x2="280.781" y2="86.813" vector-effect="non-scaling-stroke" stroke-width="1" stroke="rgb(0,0,0)" stroke-linejoin="miter" stroke-linecap="square" stroke-miterlimit="3"/><path d=" M 280.781 86.813 L 280.781 78.406 L 275.402 79.922 L 159.188 55.594 L 159.188 72.438 L 275.402 88.188 L 280.781 86.813 Z " fill="none" vector-effect="non-scaling-stroke" stroke-width="1" stroke="rgb(0,0,0)" stroke-linejoin="miter" stroke-linecap="square" stroke-miterlimit="3"/><line x1="275.402" y1="88.188" x2="275.402" y2="141.219" vector-effect="non-scaling-stroke" stroke-width="1" stroke="rgb(0,0,0)" stroke-linejoin="miter" stroke-linecap="square" stroke-miterlimit="3"/><path d=" M 104.688 140 L 131.938 174.5 L 159.188 169.031 L 159.188 33.938 L 178.75 9.188 L 344.5 70.438 L 288.973 79.652 L 280.781 78.316 L 280.863 141.762 L 307.605 138.855 L 308.156 76.57 L 344.5 70.438 L 344.5 65.813 L 178.75 1.5 L 159.188 23.813 L 159.188 11.438 L 131.938 1.5 L 105.656 61.828 L 104.688 140 Z " fill="none" vector-effect="non-scaling-stroke" stroke-width="1" stroke="rgb(0,0,0)" stroke-linejoin="miter" stroke-linecap="square" stroke-miterlimit="3"/></g></svg>